<svg id="Calque_1" data-name="Calque 1" xmlns="http://www.w3.org/2000/svg" viewBox="0 0 460.64 448"><defs><style>.cls-1{fill:#fff;stroke:#e1b12c;}.cls-1,.cls-2{stroke-linecap:round;stroke-linejoin:round;stroke-width:10px;}.cls-2{fill:none;stroke:#273c75;}</style></defs><g id="Light_rays" data-name="Light rays"><line class="cls-1" x1="148.39" y1="88.56" x2="138.14" y2="68.07"/><line class="cls-1" x1="312.25" y1="88.56" x2="322.5" y2="68.07"/><line class="cls-1" x1="373.71" y1="150.01" x2="414.67" y2="109.04"/><line class="cls-1" x1="86.93" y1="150.01" x2="45.97" y2="109.04"/><line class="cls-1" x1="66.45" y1="252.42" x2="5" y2="252.42"/><line class="cls-1" x1="394.19" y1="201.22" x2="414.67" y2="190.97"/><line class="cls-1" x1="373.71" y1="354.84" x2="414.67" y2="395.81"/><line class="cls-1" x1="86.93" y1="354.84" x2="45.97" y2="395.81"/><line class="cls-1" x1="332.74" y1="375.33" x2="342.98" y2="395.81"/><line class="cls-1" x1="127.9" y1="375.33" x2="117.66" y2="395.81"/><line class="cls-1" x1="230.32" y1="66.45" x2="230.32" y2="5"/><line class="cls-1" x1="455.64" y1="252.42" x2="394.19" y2="252.42"/><line class="cls-1" x1="65.99" y1="201.22" x2="45.97" y2="190.97"/><line class="cls-1" x1="394.19" y1="304.9" x2="414.67" y2="313.88"/><line class="cls-1" x1="65.99" y1="304.9" x2="45.97" y2="313.88"/></g><path id="Upper_socket_outlet" data-name="Upper socket outlet" class="cls-2" d="M297.7,433.4h0a11.42,11.42,0,0,1-11.33,11.5H227.11a11.42,11.42,0,0,1-11.34-11.5h0a11.42,11.42,0,0,1,11.34-11.5h59.26A11.42,11.42,0,0,1,297.7,433.4Z" transform="translate(-26.07 -32)"/><path id="Bottom_socket_outlet" data-name="Bottom socket outlet" class="cls-2" d="M283.39,468.23h0c0,3.74-3.34,6.77-7.47,6.77H236.86c-4.12,0-7.47-3-7.47-6.77h0c0-3.74,3.35-6.77,7.47-6.77h39.06C280.05,461.46,283.39,464.49,283.39,468.23Z" transform="translate(-26.07 -32)"/><path id="Light_bulb" data-name="Light bulb" class="cls-2" d="M216.39,404.45h81a30,30,0,0,1,0-9c5.38-34.62,61.19-38.79,83.95-75,8.19-13,14.37-34,6.05-69" transform="translate(-26.07 -32)"/><path id="Light_bulb-2" data-name="Light bulb" class="cls-2" d="M216.39,404.45a34.45,34.45,0,0,0,0-18c-8.76-30.25-56-24.58-81-54-27.55-32.44-12.26-97.83,0-125.15,5.37-12,24.44-52.66,72-72,10.72-4.36,52.59-19.8,99,0,53.27,22.73,69.75,73.62,72,81" transform="translate(-26.07 -32)"/><path id="Light_bulb-3" data-name="Light bulb" class="cls-2" d="M167.12,258.9c17.27,33.85,30.56,41.69,40.18,41.08,21.43-1.37,29.92-45.74,50-45.54" transform="translate(-26.07 -32)"/><path id="Light_bulb-4" data-name="Light bulb" class="cls-2" d="M257.31,254.44c21.06.67,28.58,44.17,50,45.54,17.37,1.11,19.45-28.6,40.19-41.08,7.05-4.24,26.33-8.42,39.89-7.45" transform="translate(-26.07 -32)"/></svg>